# xmcd
#
# Track frame offsets: 
#        150
#        18798
#        30962
#        48694
#        66362
#        87443
#        108866
#        130952
#        151963
#        168797
#
# Disc length: 2512 seconds
#
# Revision: 5
# Processed by: cddbd v1.5.2PL0 Copyright (c) Steve Scherf et al.
# Submitted via: ExactAudioCopy v0.99pb4
#
DISCID=7409ce0a
DTITLE=Евгений Маргулис - 45 лет
DYEAR=2004
DGENRE=Rock
TTITLE0=Соль мажор
TTITLE1=Телега
TTITLE2=Пусть она станет небом
TTITLE3=Дороги наши разошлись
TTITLE4=Земляничные поляны
TTITLE5=Подруга номер пять
TTITLE6=40 лет
TTITLE7=Когда ты уйдешь
TTITLE8=Шанхай-блюз
TTITLE9=Мой друг (лучше всех играет блюз)
EXTD=Состав:\nЕвгений Маргулис - вокал, бас\nСергей Гусев - гитара, бэ
EXTD=к-вокал\nМихаил Владимиров - губная гармошка\nМихаил Клягин - гит
EXTD=ара, бэк-вокал\nСергей Григорян - барабаны\n\n2004 Sploshnoff Col
EXTD=lection YEAR: 2004
EXTT0=
EXTT1=
EXTT2=
EXTT3=
EXTT4=
EXTT5=
EXTT6=
EXTT7=
EXTT8=
EXTT9=
PLAYORDER=
